<svg xmlns="http://www.w3.org/2000/svg" xmlns:xlink="http://www.w3.org/1999/xlink" width="17px" height="15px" viewBox="0 0 17 15" version="1.1">
    <!-- Generator: Sketch 57.1 (83088) - https://sketch.com -->
    <title>🆕Win/icons/input/capture/Default备份 2</title>
    <desc>Created with Sketch.</desc>
    <g id="控件" stroke="none" stroke-width="1" fill="none" fill-rule="evenodd" fill-opacity="0.5">
        <g id="文件传输弹窗" transform="translate(-28.000000, -490.000000)" fill="#000000">
            <g id="4.对话栏/02.输入/input_default" transform="translate(0.000000, 476.000000)">
                <g id="icons/input/Folder/default" transform="translate(24.000000, 9.000000)">
                    <path d="M9.45283013,5 L12.1458333,6.99454036 L20.0555556,6.99454036 C20.5771578,6.99454036 21,7.36954558 21,7.89051435 L21,9.99392742 L21,10.9927129 L21,19.0567026 C21,19.5776714 20.5771578,20 20.0555556,20 L4.94444444,20 C4.42284218,20 4,19.5776714 4,19.0567026 L4,5.9432974 C4,5.42232863 4.42284218,5 4.94444444,5 L9.45283013,5 Z M20.013,10.992 L5.005,10.992 L5.00592564,18.979286 L20.0132997,18.979286 L20.013,10.992 Z M9.05527826,6.02143247 L5.00592564,6.02143247 L5.005,9.993 L20.013,9.993 L20.0132997,8.00380965 L11.7482815,8.00380965 L9.05527826,6.02143247 Z" id="图标颜色"/>
                </g>
            </g>
        </g>
    </g>
</svg>